<?xml version="1.0" encoding="utf-8"?>
<!-- Generator: Adobe Illustrator 16.0.4, SVG Export Plug-In . SVG Version: 6.00 Build 0)  -->
<!DOCTYPE svg PUBLIC "-//W3C//DTD SVG 1.1//EN" "http://www.w3.org/Graphics/SVG/1.1/DTD/svg11.dtd">
<svg version="1.1" id="Layer_1" xmlns="http://www.w3.org/2000/svg" xmlns:xlink="http://www.w3.org/1999/xlink" x="0px" y="0px"
	 width="500px" height="500px" viewBox="0 0 500 500" enable-background="new 0 0 500 500" xml:space="preserve">
<g>
	<rect fill="#333333" width="500" height="500"/>
	<path fill="#FFFFFF" d="M155.384,295.053c0,20.48-4.096,36.281-14.628,46.227c-8.776,8.484-21.942,12.873-40.959,12.873
		c-10.825,0-28.085-3.219-41.543-10.531l14.921-36.865c7.313,4.389,13.458,6.438,21.357,6.438c6.144,0,9.655-2.34,11.41-5.85
		c2.048-4.391,2.048-10.828,2.048-17.555V145.847h47.395V295.053z"/>
	<path fill="#FFFFFF" d="M356.611,268.141h0.582l31.598-122.293h52.955l-58.807,204.795h-46.809l-35.4-126.388h-0.584
		l-36.279,126.388h-44.673l-57.635-204.795h52.661l30.699,122.293h0.582l34.165-122.293h44.176L356.611,268.141z"/>
</g>
<g>
</g>
<g>
</g>
<g>
</g>
<g>
</g>
<g>
</g>
<g>
</g>
<g>
</g>
<g>
</g>
<g>
</g>
<g>
</g>
<g>
</g>
<g>
</g>
<g>
</g>
<g>
</g>
<g>
</g>
</svg>
