<?xml version="1.0" encoding="utf-8"?>
<!-- Generator: Adobe Illustrator 16.0.4, SVG Export Plug-In . SVG Version: 6.00 Build 0)  -->
<!DOCTYPE svg PUBLIC "-//W3C//DTD SVG 1.1//EN" "http://www.w3.org/Graphics/SVG/1.1/DTD/svg11.dtd">
<svg version="1.1" id="inlux_1_" xmlns="http://www.w3.org/2000/svg" xmlns:xlink="http://www.w3.org/1999/xlink" x="0px" y="0px"
	 width="1200px" height="1200px" viewBox="0 0 1200 1200" enable-background="new 0 0 1200 1200" xml:space="preserve">
<g id="inlux">
	<rect fill="#614776" width="1200" height="1200"/>
	<g>
		<path fill="#FFFFFF" d="M491.873,581.745c-12.187,27.175-18.268,62.853-18.268,107.048c0,47.343,9.576,71.007,28.714,71.007
			c12.87,0,26.103-10.78,39.682-32.369c-8.355-35.839-12.534-77.959-12.534-126.361c0-45.247,3.482-89.717,10.446-133.402
			c6.963-43.674,16.264-79.438,27.929-107.288c11.665-27.844,23.751-41.771,36.328-41.771c22.622,0,33.938,26.457,33.938,79.358
			c0,27.855-6.095,75.273-18.28,142.275c-12.188,67.024-29.278,123.321-51.202,168.922c13.916,72.735,41.278,109.109,82.015,109.109
			c18.777,0,32.01-9.052,39.672-27.146c1.741-4.179,3.133-6.268,4.178-6.268s1.564,1.219,1.564,3.655v1.567l3.135,2.09
			c-1.741,16.713-8.082,29.759-19.051,39.158c-10.967,9.401-23.751,14.104-38.377,14.104c-44.596,0-76.269-32.893-95.061-98.677
			c-18.105,24.71-35.502,37.058-52.217,37.058c-17.396,0-31.848-12-43.325-36.013c-11.491-24.025-17.236-52.739-17.236-86.154
			v-10.968c-7.312,8.021-14.014,19.935-20.095,35.764c-6.094,15.844-12.014,34.722-17.758,56.657
			c-5.734,21.924-9.478,35.503-11.218,40.714c-0.349,3.482-2.959,5.223-7.834,5.223c-3.134,0-6.79-1.045-10.969-3.133
			c-4.179-2.09-7.486-4.266-9.912-6.517c-2.437-2.275-3.654-3.755-3.654-4.438l1.045-10.447c0.684-6.604,1.565-16.266,2.609-28.974
			c1.045-12.71,2.09-25.32,3.135-37.854c3.469-49.767,5.211-78.842,5.211-87.187c0-4.875-0.349-7.312-1.045-7.312
			c-1.741,0-4.949,9.402-9.65,28.191c-4.7,18.804-10.01,39.509-15.93,62.13c-5.92,22.632-14.972,43.337-27.146,62.127
			c-12.187,18.804-25.581,28.191-40.204,28.191c-25.406,0-38.116-27.146-38.116-81.44c0-26.798,2.351-54.642,7.052-83.542
			c4.7-28.903,9.313-43.348,13.84-43.348c10.086,0,20.706-1.219,31.848-3.656c1.742,0,3.135,0.348,4.179,1.043
			c1.045,0.703,1.729,1.394,2.09,2.09v1.045c-1.405,7.66-3.482,18.89-6.269,33.697c-2.798,14.798-4.612,24.796-5.483,30.021
			c-0.87,5.222-2.089,13.043-3.656,23.49c-1.566,10.445-2.611,18.628-3.134,24.534c-0.522,5.933-1.045,12.972-1.567,21.154
			c-0.522,8.182-0.782,16.626-0.782,25.317c0,16.018,3.133,24.014,9.4,24.014c7.312,0,14.103-3.394,20.358-10.173
			c6.266-6.789,11.924-16.451,16.975-28.986c5.035-12.523,9.302-24.449,12.783-35.764c3.481-11.305,7.312-24.611,11.49-39.931
			c4.179-15.322,7.312-26.104,9.4-32.371c10.086-29.264,17.572-43.882,22.447-43.882c3.482,0,7.487-0.952,12.012-2.873
			c4.515-1.909,7.312-2.872,8.357-2.872c3.121,0,4.688,14.972,4.688,44.927c0,18.105-0.088,35.938-0.262,53.51
			c-0.175,17.584-0.261,27.246-0.261,28.975c2.438-5.559,6.702-15.656,12.796-30.28c6.082-14.612,11.305-26.8,15.669-36.548
			c4.341-9.737,9.998-20.456,16.962-32.125c6.965-11.658,13.916-20.798,20.879-27.414c1.742-1.045,3.135-1.567,4.18-1.567
			c3.134,0,7.921,2.35,14.362,7.051c6.43,4.701,9.65,8.443,9.65,11.223C492.395,580.178,492.221,581.055,491.873,581.745z
			 M295.055,434.514c-9.75,0-17.933,4.439-24.548,13.312c-6.616,8.878-9.912,18.535-9.912,28.981c0,7.661,1.99,14.015,5.993,19.052
			c4.005,5.055,10.012,7.573,18.02,7.573c8.693,0,16.44-4.869,23.23-14.618c6.789-9.743,10.185-19.841,10.185-30.28
			C318.023,442.528,310.363,434.514,295.055,434.514z M559.224,596.363c0,33.785,1.567,62.336,4.699,85.653
			c16.007-41.074,28.366-90.608,37.092-148.564c8.714-57.95,13.067-97.712,13.067-119.301c0-29.236-4.006-43.854-12.017-43.854
			c-10.125,0-19.787,23.758-29,71.269C563.837,489.075,559.224,540.682,559.224,596.363z"/>
		<path fill="#FFFFFF" d="M790.567,780.692c-29.249,0-44.221-27.494-44.917-82.498c-22.957,61.271-44.894,91.887-65.786,91.887
			c-25.044,0-37.577-29.049-37.577-87.186c0-22.272,1.839-45.589,5.47-69.963c3.657-24.36,7.412-43.172,11.243-56.405
			c1.393-4.521,3.48-6.79,6.265-6.79c10.448,0,21.043-1.219,31.835-3.655c1.741,0,3.135,0.354,4.18,1.044
			c1.045,0.702,1.567,1.393,1.567,2.089l0.522,1.045c0,0.703-0.771,3.836-2.339,9.395c-1.567,5.571-3.582,13.15-6.018,22.73
			c-2.438,9.58-4.776,20.361-7.04,32.375c-2.262,12.014-4.178,26.625-5.744,43.86c-1.565,17.223-2.364,34.721-2.364,52.466
			c0,19.15,3.309,28.713,9.926,28.713c6.962,0,16.19-9.562,27.68-28.713c11.491-19.139,21.043-39.333,28.701-60.562
			c2.786-43.151,9.749-76.252,20.895-99.22c3.132-6.609,6.963-9.923,11.488-9.923c3.483,0,7.66,1.305,12.536,3.917
			c4.874,2.612,7.312,5.143,7.312,7.573c0,0.703-0.349,2.438-1.045,5.217c-2.436,7.312-5.147,23.332-8.105,48.054
			c-2.963,24.722-4.431,47.517-4.431,68.396c0,39.333,6.443,58.994,19.325,58.994c2.09,0,4.428-0.783,7.038-2.351
			c2.614-1.567,5.473-3.817,8.607-6.777c3.134-2.96,6.095-5.919,8.881-8.878c2.784-2.961,5.818-6.604,9.15-10.969
			c3.283-4.341,5.894-7.835,7.809-10.434c1.916-2.612,4.277-5.92,7.063-9.924s4.354-6.181,4.702-6.528
			c-3.133-11.827-6.89-27.757-11.243-47.766c-4.352-20.021-8.082-35.678-11.217-46.995c-3.133-11.332-6.265-18.556-9.399-21.689
			c11.141-13.225,22.98-19.841,35.516-19.841c10.77,0,16.688,4.881,17.732,14.624c4.18,32.044,8.008,57.623,11.491,76.761
			l80.93-104.437c1.045-1.045,2.264-1.566,3.657-1.566c3.134,0,4.701,2.089,4.701,6.267c0,1.748-0.273,4.004-0.797,6.791
			c-0.521,2.786-0.771,4.353-0.771,4.694l-10.969,13.05c-7.312,8.706-17.932,22.279-31.835,40.743
			c-13.927,18.455-27.508,37.431-40.74,56.918c10.098,47.69,21.066,71.529,32.904,71.529c5.895,0,12.512-5.92,19.824-17.758
			c7.312-11.826,11.49-20.88,12.535-27.147c3.829-2.785,6.615-4.178,8.356-4.178c3.48,0,5.223,2.96,5.223,8.878
			c0,12.885-5.919,28.628-17.758,47.244c-11.84,18.615-24.522,27.93-38.103,27.93c-20.893,0-38.998-20.88-54.295-62.65
			c-12.188,15.32-21.238,26.376-27.159,33.153c-5.919,6.79-13.131,13.231-21.663,19.325
			C805.789,777.634,797.879,780.692,790.567,780.692z"/>
	</g>
</g>
</svg>
