<?xml version="1.0" encoding="utf-8"?>
<!-- Generator: Adobe Illustrator 16.0.1, SVG Export Plug-In . SVG Version: 6.00 Build 0)  -->
<!DOCTYPE svg PUBLIC "-//W3C//DTD SVG 1.1//EN" "http://www.w3.org/Graphics/SVG/1.1/DTD/svg11.dtd">
<svg version="1.1" id="Layer_1" xmlns="http://www.w3.org/2000/svg" xmlns:xlink="http://www.w3.org/1999/xlink" x="0px" y="0px"
	 width="1200px" height="1200px" viewBox="0 0 1200 1200" enable-background="new 0 0 1200 1200" xml:space="preserve">
<rect fill="#FFFFFF" width="1200" height="1200"/>
<g>
	<path fill="#A03123" d="M787.851,805.646l1.678,269.275c0,20.97,1.669,32.741,1.669,50.282c0,6.466,0.393,11.9,1.114,16.773
		h301.379L796.94,792.995c-1.659-1.668-4.067-3.354-6.55-3.354C787.851,789.641,787.851,793.839,787.851,805.646 M58.037,142.884
		c17.813-31.177,39.142-59.739,63.927-84.833H58.037V142.884z M410.238,91.134c-182.85,0-301.773,103.278-352.202,218.111v274.199
		c14,26.299,42.566,45.564,125.6,45.564h75.991c82.724,0,97.352-1.33,97.352-81.154c0-77.008,2.676-90.464,18.713-90.464
		c25.301,0,25.301,26.964,25.301,47.247c0,56.726-2.75,112.115-2.75,168.92c0,58.098,2.75,116.27,2.75,156.79
		c0,29.741-2.75,44.547-15.986,44.547c-21.328,0-21.328-29.686-21.328-66.195c0-28.373-1.364-63.513-46.712-63.513H106.437
		c-14.726,0-35.177-3.036-48.4-18.854v415.644h688.799l9.558-319.633c0.853-19.172,1.687-36.863,1.687-42.842
		c0-38.289-5.397-51.651-16.698-57.03c-22.312,2.024-52.082,2.438-92.572,2.438c-10.598,0-10.598-5.323-10.598-17.543
		c0-29.667,170.582-48.708,170.582-255.42C808.794,357.288,783.475,91.134,410.238,91.134 M1067.592,700.693
		c0-13.436,14.882-14.186,24.795-14.186c16.418,0,33.003,0.918,49.59,1.799V58.051h-443.56
		c96.827,89.316,150.334,226.245,150.334,385.794c0,90.609-14.693,151.345-34.606,224.259c-2.323,8.451-4.844,15.461-7.824,21.607
		c8.827,4.199,14.216,11.639,18.826,16.867l316.83,378.724V718.012c-10.121-2.1-25.132-3.018-47.115-4.63
		C1084.179,712.408,1067.592,712.408,1067.592,700.693"/>
</g>
<g>
</g>
<g>
</g>
<g>
</g>
<g>
</g>
<g>
</g>
<g>
</g>
</svg>
