<?xml version="1.0" encoding="utf-8"?>
<!-- Generator: Adobe Illustrator 16.0.4, SVG Export Plug-In . SVG Version: 6.00 Build 0)  -->
<!DOCTYPE svg PUBLIC "-//W3C//DTD SVG 1.1//EN" "http://www.w3.org/Graphics/SVG/1.1/DTD/svg11.dtd">
<svg version="1.1" xmlns="http://www.w3.org/2000/svg" xmlns:xlink="http://www.w3.org/1999/xlink" x="0px" y="0px" width="1200px"
	 height="1200px" viewBox="0 0 1200 1200" enable-background="new 0 0 1200 1200" xml:space="preserve">
<g id="Layer_2">
	<rect fill-rule="evenodd" clip-rule="evenodd" fill="#027053" width="1200" height="1200"/>
</g>
<g id="Layer_1">
	<g>
		<path fill-rule="evenodd" clip-rule="evenodd" fill="#FFFFFF" d="M283.591,634.187c-29.368-0.332-53.583-6.461-73.676-24.121
			c-25.832-22.705-33.982-52.189-30.843-85.284c4.172-43.982,34.349-75.686,78.369-83.176c32.673-5.56,64.153-1.809,91.184,19.726
			c17.541,13.974,27.344,32.822,31.151,54.67c4.953,28.421,1.309,55.398-15.962,79.333c-15.203,21.068-36.572,32.357-61.728,36.871
			C294.948,633.487,287.632,633.772,283.591,634.187z M346.465,542.106c-0.839-23.398-6.458-45.776-20.869-65.367
			c-27.588-37.507-77.093-34.761-99.961,5.534c-19.327,34.055-13.796,89.579,11.856,119.035
			c26.034,29.891,67.443,29.537,90.834-1.104C341.227,583.306,345.533,563.431,346.465,542.106z"/>
		<path fill-rule="evenodd" clip-rule="evenodd" fill="#FFFFFF" d="M646.322,630.917c-30.712,0-61.425,0-92.138,0
			c-0.359-0.408-0.72-0.818-1.079-1.225c1.145-0.961,2.146-2.416,3.459-2.795c5.644-1.627,11.526-2.52,17.046-4.463
			c7.762-2.734,12.488-8.861,12.849-16.867c1.035-22.979,1.371-45.99,1.993-69.464c-37.812,0-74.555,0-111.701,0
			c-0.146,1.446-0.412,2.753-0.391,4.057c0.331,20.482,0.406,40.976,1.163,61.442c0.488,13.212,5.641,19.068,18.36,22.686
			c3.761,1.07,7.693,1.533,11.471,2.555c1.422,0.387,2.629,1.566,3.935,2.385c-0.215,0.486-0.429,0.975-0.644,1.461
			c-30.799,0-61.599,0-92.398,0c-0.341-0.352-0.683-0.705-1.024-1.059c1.213-0.939,2.296-2.348,3.665-2.73
			c3.768-1.055,7.717-1.457,11.482-2.515c13.608-3.824,19.124-9.985,19.23-23.929c0.324-42.358,0.311-84.723,0.043-127.082
			c-0.086-13.712-6.35-20.857-19.668-24.351c-4.542-1.192-9.199-1.951-14.708-4.24c1.278-0.778,2.552-2.229,3.833-2.234
			c28.777-0.127,57.555-0.121,86.332-0.003c1.132,0.005,2.258,1.347,3.387,2.067c-1.142,0.708-2.198,1.73-3.441,2.068
			c-4.921,1.34-9.992,2.18-14.838,3.733c-8.988,2.881-14.256,9.408-14.837,18.667c-1.023,16.289-1.304,32.625-1.915,49.461
			c37.6,0,74.343,0,112.07,0c0-1.682,0.036-3.544-0.006-5.405c-0.32-14.171-0.07-28.386-1.16-42.498
			c-1.007-13.036-6.336-18.344-18.96-21.559c-3.994-1.017-8.095-1.612-12.097-2.604c-0.838-0.208-1.452-1.314-2.169-2.007
			c0.745-0.673,1.4-1.527,2.266-1.96c0.636-0.318,1.546-0.1,2.334-0.099c28.581,0.018,57.161,0.036,85.741,0.067
			c0.773,0.001,1.545,0.143,3.627,0.348c-1.324,1.68-1.948,3.238-3.018,3.659c-1.974,0.777-4.206,0.907-6.336,1.27
			c-18.731,3.199-25.346,10.703-25.669,29.842c-0.272,16.158-0.205,32.323-0.207,48.484c-0.003,22.272,0.001,44.546,0.169,66.818
			c0.036,4.701,0.517,9.445,1.286,14.086c1.345,8.104,6.289,13.512,13.97,16.043c5.011,1.65,10.314,2.4,15.415,3.809
			c1.494,0.412,2.748,1.697,4.112,2.58C646.88,629.917,646.602,630.417,646.322,630.917z"/>
		<path fill-rule="evenodd" clip-rule="evenodd" fill="#FFFFFF" d="M919.818,634.579c-24.897-0.646-47.938-6.598-67.73-22.384
			c-20.41-16.276-30.789-38.093-33.346-63.555c-2.012-20.043,0.278-39.728,9.718-57.996c11.716-22.678,29.998-37.844,54.218-45.342
			c30.463-9.431,60.782-8.534,89.584,5.747c29.601,14.676,44.268,40.115,48.333,72.293c2.93,23.189-0.618,45.277-12.646,65.363
			c-15.005,25.058-38.126,38.53-66.444,43.53C934.361,633.497,927.053,633.823,919.818,634.579z M853.301,530.281
			c0.533,5.872,0.775,11.788,1.656,17.607c3.148,20.787,10.062,39.975,24.489,55.852c25.709,28.295,68.415,25.572,90.206-5.771
			c25.17-36.203,20.344-95.776-10.393-128.295c-27.796-29.408-71.502-24.804-92.349,9.84
			C857.543,495.081,853.756,512.202,853.301,530.281z"/>
		<path fill-rule="evenodd" clip-rule="evenodd" fill="#FFFFFF" d="M782.348,630.888c-30.707,0-61.412,0-92.118,0
			c-0.351-0.422-0.703-0.842-1.055-1.262c1.171-0.949,2.203-2.385,3.537-2.76c5.277-1.492,10.762-2.307,15.958-4.016
			c8.553-2.812,12.934-9.314,13.964-18.032c0.668-5.662,1.186-11.38,1.202-17.073c0.107-34.1,0.086-68.2,0.004-102.3
			c-0.012-4.712-0.408-9.446-0.949-14.133c-1.552-13.449-6.447-18.979-19.664-22.328c-3.805-0.964-7.715-1.509-11.522-2.457
			c-0.839-0.208-1.456-1.31-2.175-2.001c0.749-0.692,1.405-1.569,2.279-2.016c0.626-0.319,1.545-0.063,2.333-0.063
			c27.988-0.001,55.979-0.031,83.967,0.07c1.649,0.006,3.295,1.075,4.942,1.649c-0.173,0.608-0.347,1.215-0.52,1.823
			c-4.384,0.942-8.81,1.72-13.144,2.856c-14.767,3.87-20.6,10.031-20.758,25.246c-0.435,41.778-0.538,83.569,0.044,125.343
			c0.245,17.604,8.404,24.236,29.227,27.318c1.804,0.266,3.457,1.555,5.18,2.369C782.836,629.712,782.591,630.298,782.348,630.888z"
			/>
		<path fill-rule="evenodd" clip-rule="evenodd" fill="#FFFFFF" d="M728.415,758.249c-18.093,5.941-37.242-2.818-45.978-14.805
			c-3.35-4.598-6.462-9.457-8.993-14.539c-2.515-5.049-5.992-7.564-11.836-7.025c0,6.154-0.347,12.363,0.086,18.52
			c0.595,8.465,8.701,7.33,13.783,10.615c-12.706,0-25.411,0-38.116,0c-0.092-0.357-0.185-0.717-0.277-1.074
			c1.072-0.451,2.127-1.234,3.223-1.297c6.549-0.373,8.871-4.492,8.943-10.254c0.157-12.418,0.155-24.838,0.072-37.256
			c-0.039-5.518-2.026-9.594-8.452-9.887c-1.2-0.055-2.364-0.885-3.546-1.357c0.048-0.492,0.095-0.982,0.143-1.473
			c1.766,0,3.532-0.031,5.297,0.004c11.612,0.236,23.257,0.029,34.826,0.873c9.527,0.695,13.771,4.375,15.02,10.809
			c1.279,6.596-2.311,12.871-9.838,17.188c-0.498,0.285-1.004,0.559-1.498,0.834C690.445,740.265,701.518,757.011,728.415,758.249z
			 M661.398,718.044c11.395-0.115,17.99-5.773,17.546-14.709c-0.387-7.754-7.404-12.383-17.546-11.281
			C661.398,700.536,661.398,709.069,661.398,718.044z"/>
		<path fill-rule="evenodd" clip-rule="evenodd" fill="#FFFFFF" d="M290.164,688.271c6.232,0,12.475-0.199,18.688,0.139
			c1.579,0.086,3.348,1.627,4.548,2.938c12.371,13.516,24.637,27.125,36.956,40.689c0.598,0.658,1.412,1.119,1.906,1.502
			c0-11.338,0.228-22.48-0.111-33.605c-0.137-4.504-3.007-7.553-7.714-8.459c-2.004-0.387-3.977-0.934-5.779-2.689
			c9.125,0,18.25,0,27.375,0c-9.241,3.248-8.121,10.967-8.127,18.145c-0.018,17.471-0.006,34.939-0.006,53.963
			c-9.106-10.334-17.208-19.58-25.367-28.773c-8.177-9.213-16.411-18.373-24.695-27.641c0,12.283-0.354,24.041,0.288,35.744
			c0.135,2.455,3.673,5.051,6.135,6.943c1.64,1.262,4.15,1.391,6.021,3.238c-9.715,0-19.432,0-29.147,0
			c-0.071-0.318-0.143-0.639-0.213-0.957c1.497-0.518,3.402-0.629,4.409-1.637c2.325-2.326,5.877-5.014,6-7.688
			c0.593-12.977,0.679-26.029-0.133-38.984c-0.207-3.281-4.188-6.479-6.809-9.375c-1.015-1.123-3.065-1.311-4.643-1.924
			C289.884,689.317,290.023,688.794,290.164,688.271z"/>
		<path fill-rule="evenodd" clip-rule="evenodd" fill="#FFFFFF" d="M550.349,749.946c0.16-0.312,0.294-0.895,0.488-0.916
			c12.342-1.32,11.161-5.982,11.532-15.967c0.389-10.424-0.156-20.879-0.169-31.318c-0.008-6.17-2.248-10.248-8.964-10.822
			c-1.059-0.09-2.065-0.773-2.974-2.102c18.062,0,36.127,0,54.535,0c-0.544,5.057-1.08,10.041-1.529,14.229
			c-3.973-3.584-7.3-8.33-11.815-10.189c-4.787-1.971-10.703-1.201-16.605-1.666c0,8.443,0,16.037,0,24.588
			c8.487-1.033,18.783,3.801,23.811-8.689c0,7.553,0,15.107,0,22.66c-0.368,0.475-0.735,0.947-1.104,1.422
			c-3.59-13.504-13.55-9.834-22.897-10.021c0,6.752-0.622,13.439,0.326,19.896c0.348,2.367,4.14,5.455,6.834,6.041
			c12.032,2.623,20.118-2.238,24.55-13.787c0.446-1.166,1.008-2.289,1.691-3.824c2.037,3.883,0.612,18.475-1.772,20.57
			c-0.637,0.559-1.763,0.785-2.666,0.785c-17.532-0.002-35.064-0.059-52.597-0.141C550.803,750.694,550.585,750.22,550.349,749.946z
			"/>
		<path fill-rule="evenodd" clip-rule="evenodd" fill="#FFFFFF" d="M239.525,688.632c10.594,0,21.188,0,31.878,0
			c-0.188,0.625-0.227,1.195-0.389,1.232c-11.128,2.566-12.1,3.832-12.509,15.479c-0.29,8.262-0.624,16.525-1.164,24.773
			c-0.957,14.611-10.559,22.766-26.886,22.605c-4.07-0.039-8.243-0.754-12.173-1.857c-10.746-3.016-14.875-8.539-15.03-19.621
			c-0.125-8.859,0.005-17.725-0.09-26.584c-0.111-10.396-0.708-11.127-10.285-14.041c-0.69-0.211-1.326-0.598-1.868-1.781
			c12.009,0,24.019,0,36.083,0c-0.073,0.496-0.047,0.793-0.133,0.83c-12.073,5.154-12.183,5.154-12.017,18.934
			c0.102,8.438-0.117,16.975,1.118,25.271c1.355,9.104,10.814,14.352,21.871,13.43c9.24-0.77,14.828-6.484,15.111-16.35
			c0.282-9.832,0.026-19.686-0.159-29.527c-0.104-5.584-2.548-9.346-8.622-10c-1.676-0.182-3.289-0.943-4.931-1.438
			C239.395,689.536,239.46,689.083,239.525,688.632z"/>
		<path fill-rule="evenodd" clip-rule="evenodd" fill="#FFFFFF" d="M498.159,736.724c4.26-11.375,8.783-22.658,12.69-34.152
			c2.614-7.689,1.371-9.287-6.61-11.678c-1-0.301-1.928-0.842-2.729-2.148c9.229,0,18.457,0,27.903,0
			c-0.151,0.518-0.188,1.367-0.453,1.445c-7.021,2.047-10.177,7.646-12.73,13.775c-7.408,17.783-14.782,35.58-22.179,53.367
			c-0.366,0.881-0.826,1.723-1.576,3.271c-6.992-17.133-13.721-33.615-20.447-50.1c-0.893-2.186-1.777-4.377-2.644-6.574
			c-2.482-6.295-5.19-12.385-12.584-15.057c10.716,0,21.433,0,32.149,0c0.168,0.27,0.336,0.539,0.504,0.809
			c-1.339,0.594-2.626,1.436-4.027,1.732c-4.925,1.045-5.975,4.014-4.214,8.279c5.097,12.348,10.286,24.654,15.439,36.979
			C497.154,736.688,497.656,736.706,498.159,736.724z"/>
		<path fill-rule="evenodd" clip-rule="evenodd" fill="#FFFFFF" d="M729.409,729.388c1.44,2.65,2.754,5.377,4.344,7.934
			c4.012,6.449,9.129,11.967,17.337,11.078c3.516-0.381,7.764-2.908,9.8-5.789c2.612-3.697,1.412-8.605-2.136-11.768
			c-3.042-2.713-6.723-4.736-10.224-6.896c-1.997-1.234-4.259-2.031-6.299-3.203c-8.68-4.979-12.146-10.76-10.756-17.76
			c1.692-8.525,8.856-14.865,18.21-15.889c2.723-0.299,5.509-0.27,8.247-0.102c11.966,0.738,15.903,8.49,9.666,20.102
			c-1.598-3.889-2.724-7.576-4.555-10.871c-2.856-5.143-8.627-7.068-13.645-5.059c-4.657,1.867-7.39,6.535-5.646,11.475
			c1.031,2.918,3.338,5.861,5.874,7.668c4.771,3.4,10.175,5.9,15.221,8.93c5.998,3.602,9.624,8.77,9.047,16.012
			c-0.607,7.662-5.051,12.562-12.091,15.232c-9.334,3.543-18.524,2.672-27.49-1.252c-1.485-0.65-3.339-2.043-3.69-3.43
			c-1.317-5.193-2.081-10.527-3.051-15.809C728.186,729.79,728.798,729.589,729.409,729.388z"/>
		<path fill-rule="evenodd" clip-rule="evenodd" fill="#FFFFFF" d="M956.142,750.196c12.271-4.344,12.777-1.59,13.088-19.004
			c0.046-2.643-0.497-5.516-1.572-7.92c-3.128-6.998-6.834-13.736-9.993-20.721c-2.981-6.592-7.628-11.125-15.376-12.41
			c0.284-0.471,0.569-0.941,0.853-1.414c10.532,0,21.063,0,32.96,0c-1.954,1.279-2.755,2.18-3.693,2.355
			c-4.925,0.912-4.771,4.215-3.329,7.568c2.99,6.961,6.333,13.77,10.263,22.207c3.71-8.469,6.98-15.488,9.866-22.664
			c2.363-5.873-3.806-6.09-7.409-9.348c9.635,0,18.172,0,26.732,0c-0.036,0.473,0.002,1.119-0.101,1.143
			c-11.257,2.521-15.024,12.027-20.088,20.709c-4.789,8.215-7.938,16.371-7.049,26.109c0.699,7.67,2.21,10.17,9.658,11.689
			c1.104,0.223,2.208,0.449,3.312,0.674c-0.017,0.342-0.031,0.684-0.048,1.025C981.525,750.196,968.833,750.196,956.142,750.196z"/>
		<path fill-rule="evenodd" clip-rule="evenodd" fill="#FFFFFF" d="M926.523,705.505c-4.487-4.424-8.093-9.293-12.879-12.246
			c-3.296-2.033-8.227-1.412-12.594-2c0,17.188-0.221,33.494,0.26,49.781c0.064,2.215,3.324,4.816,5.686,6.336
			c1.961,1.262,4.776,1.191,7.18,2.77c-13.128,0-26.256,0-39.384,0c-0.096-0.217-0.191-0.434-0.288-0.648
			c2.24-0.582,4.451-1.346,6.726-1.709c4.679-0.748,7.003-3.691,7.047-8.078c0.156-15.729,0.062-31.459,0.062-48.857
			c-5.528,1.195-11.137,1.201-15.298,3.656c-3.982,2.352-6.462,7.248-10.433,12.027c0.739-6.568,1.372-12.199,2.031-18.051
			c20.043,0,39.661,0,59.892,0C925.205,694.241,925.864,699.88,926.523,705.505z"/>
		<path fill-rule="evenodd" clip-rule="evenodd" fill="#FFFFFF" d="M836.789,750.454c-11.888,0-23.776,0-35.846,0
			c0.314-0.77,0.372-1.324,0.594-1.398c11.035-3.777,11.156-3.771,11.326-15.395c0.151-10.236,0.093-20.479-0.057-30.715
			c-0.132-9.096-0.663-9.627-9.369-12.174c-0.871-0.254-1.688-0.695-2.416-1.951c11.908,0,23.815,0,35.722,0
			c0.14,0.262,0.278,0.525,0.417,0.789c-1.408,0.562-2.777,1.453-4.233,1.627c-5.632,0.668-7.679,4.082-7.676,9.314
			c0.006,12.404,0.117,24.809-0.074,37.211c-0.095,6.074,2.229,9.766,8.432,10.646c1.11,0.156,2.192,0.498,3.289,0.754
			C836.862,749.595,836.825,750.024,836.789,750.454z"/>
		<path fill-rule="evenodd" clip-rule="evenodd" fill="#FFFFFF" d="M397.679,688.565c11.847,0,23.694,0,37.404,0
			c-2.446,1.287-3.267,1.904-4.189,2.176c-8.526,2.49-9.318,2.945-9.633,12.129c-0.389,11.393-0.322,22.818,0.087,34.211
			c0.315,8.805,1.254,9.418,10.182,11.512c0.653,0.152,1.242,0.58,1.712,1.76c-11.854,0-23.708,0-35.625,0
			c0.141-0.562,0.148-1.156,0.324-1.211c11.2-3.518,11.225-3.514,11.265-15.59c0.032-10.033,0.048-20.066-0.021-30.098
			c-0.053-7.596-0.606-11.41-9.534-12.725c-0.815-0.121-1.556-0.738-2.332-1.125C397.438,689.259,397.559,688.911,397.679,688.565z"
			/>
	</g>
</g>
</svg>
